<svg width="512" height="512" viewBox="0 0 512 512" xmlns="http://www.w3.org/2000/svg">
  <!-- Background circle with gradient -->
  <defs>
    <linearGradient id="bgGradient" x1="0%" y1="0%" x2="100%" y2="100%">
      <stop offset="0%" style="stop-color:#667eea;stop-opacity:1" />
      <stop offset="100%" style="stop-color:#764ba2;stop-opacity:1" />
    </linearGradient>
    <linearGradient id="iconGradient" x1="0%" y1="0%" x2="100%" y2="100%">
      <stop offset="0%" style="stop-color:#ffffff;stop-opacity:1" />
      <stop offset="100%" style="stop-color:#f0f0f0;stop-opacity:1" />
    </linearGradient>
  </defs>
  
  <!-- Background -->
  <circle cx="256" cy="256" r="240" fill="url(#bgGradient)" />
  
  <!-- Git branch icon -->
  <g fill="url(#iconGradient)" stroke="none">
    <!-- Main branch line -->
    <rect x="120" y="140" width="8" height="232" rx="4" />
    
    <!-- Branch circle (top) -->
    <circle cx="124" cy="150" r="16" />
    
    <!-- Branch circle (bottom) -->
    <circle cx="124" cy="362" r="16" />
    
    <!-- Pull request branch -->
    <path d="M 140 200 Q 200 200 240 160 L 340 160" stroke="url(#iconGradient)" stroke-width="8" fill="none" stroke-linecap="round"/>
    
    <!-- Pull request circle -->
    <circle cx="350" cy="160" r="16" />
    
    <!-- Merge arrow -->
    <path d="M 340 280 Q 200 280 140 320" stroke="url(#iconGradient)" stroke-width="8" fill="none" stroke-linecap="round"/>
    <path d="M 325 270 L 350 280 L 325 290 Z" fill="url(#iconGradient)" />
  </g>
  
  <!-- PR number badge -->
  <rect x="380" y="120" width="60" height="24" rx="12" fill="#28a745" />
  <text x="410" y="137" font-family="Arial, sans-serif" font-size="14" font-weight="bold" fill="white" text-anchor="middle">PR</text>
  
  <!-- GitHub icon elements -->
  <g transform="translate(380, 360)">
    <circle cx="20" cy="20" r="18" fill="#24292e" />
    <path d="M 20 8 C 13.4 8 8 13.4 8 20 C 8 25.2 11.2 29.6 15.8 31 C 16.4 31.1 16.6 30.7 16.6 30.4 C 16.6 30.1 16.6 29.4 16.6 28.4 C 13.2 29.2 12.4 26.8 12.4 26.8 C 11.9 25.6 11.1 25.2 11.1 25.2 C 10 24.4 11.2 24.4 11.2 24.4 C 12.4 24.5 13.1 25.8 13.1 25.8 C 14.2 27.8 15.9 27.2 16.6 26.9 C 16.7 26.1 17 25.6 17.3 25.3 C 15.1 25 12.7 24 12.7 19.6 C 12.7 18.4 13.1 17.4 13.2 16.6 C 13.1 16.3 12.7 15.1 13.3 13.5 C 13.3 13.5 14.3 13.2 16.6 14.7 C 17.6 14.4 18.8 14.3 20 14.3 C 21.2 14.3 22.4 14.4 23.4 14.7 C 25.7 13.2 26.7 13.5 26.7 13.5 C 27.3 15.1 26.9 16.3 26.8 16.6 C 26.9 17.4 27.3 18.4 27.3 19.6 C 27.3 24 24.9 25 22.7 25.3 C 23.1 25.6 23.4 26.2 23.4 27.1 C 23.4 28.4 23.4 29.4 23.4 29.7 C 23.4 30 23.6 30.4 24.2 30.3 C 28.8 29.6 32 25.2 32 20 C 32 13.4 26.6 8 20 8 Z" fill="white" />
  </g>
</svg>